<svg width="16" height="16" viewBox="0 0 16 16" fill="none" xmlns="http://www.w3.org/2000/svg">
<path d="M8 1.5C6.71442 1.5 5.45772 1.88122 4.3888 2.59545C3.31988 3.30968 2.48676 4.32484 1.99479 5.51256C1.50282 6.70028 1.37409 8.00721 1.6249 9.26809C1.8757 10.529 2.49477 11.6872 3.40381 12.5962C4.31285 13.5052 5.47104 14.1243 6.73192 14.3751C7.99279 14.6259 9.29973 14.4972 10.4874 14.0052C11.6752 13.5132 12.6903 12.6801 13.4046 11.6112C14.1188 10.5423 14.5 9.28558 14.5 8C14.4979 6.27675 13.8123 4.6247 12.5938 3.40618C11.3753 2.18766 9.72325 1.50215 8 1.5ZM10.2775 8.41625L7.2775 10.4163C7.19522 10.4708 7.09872 10.4999 7 10.5C6.86739 10.5 6.74022 10.4473 6.64645 10.3536C6.55268 10.2598 6.5 10.1326 6.5 10V6C6.49994 5.90946 6.52447 5.8206 6.57097 5.74291C6.61747 5.66521 6.68419 5.60161 6.76401 5.55887C6.84383 5.51614 6.93376 5.49588 7.0242 5.50026C7.11464 5.50464 7.20219 5.5335 7.2775 5.58375L10.2775 7.58375C10.3461 7.62939 10.4023 7.69127 10.4412 7.76389C10.4801 7.83651 10.5005 7.91762 10.5005 8C10.5005 8.08238 10.4801 8.16349 10.4412 8.23611C10.4023 8.30873 10.3461 8.37061 10.2775 8.41625Z" fill="#F9FAFB"/>
</svg>
