<svg width="14" height="14" viewBox="0 0 14 14" fill="none" xmlns="http://www.w3.org/2000/svg">
<path d="M7 0.5C5.71442 0.5 4.45772 0.881218 3.3888 1.59545C2.31988 2.30968 1.48676 3.32484 0.994786 4.51256C0.502816 5.70028 0.374095 7.00721 0.624899 8.26809C0.875703 9.52896 1.49477 10.6872 2.40381 11.5962C3.31285 12.5052 4.47104 13.1243 5.73192 13.3751C6.99279 13.6259 8.29973 13.4972 9.48744 13.0052C10.6752 12.5132 11.6903 11.6801 12.4046 10.6112C13.1188 9.54229 13.5 8.28558 13.5 7C13.4979 5.27675 12.8123 3.6247 11.5938 2.40618C10.3753 1.18766 8.72325 0.50215 7 0.5ZM9.2775 7.41625L6.2775 9.41625C6.19522 9.47079 6.09872 9.49991 6 9.5C5.86739 9.5 5.74022 9.44732 5.64645 9.35355C5.55268 9.25979 5.5 9.13261 5.5 9V5C5.49994 4.90946 5.52447 4.8206 5.57097 4.74291C5.61747 4.66521 5.68419 4.60161 5.76401 4.55887C5.84383 4.51614 5.93376 4.49588 6.0242 4.50026C6.11464 4.50464 6.20219 4.5335 6.2775 4.58375L9.2775 6.58375C9.34609 6.62939 9.40233 6.69127 9.44123 6.76389C9.48013 6.83651 9.50049 6.91762 9.50049 7C9.50049 7.08238 9.48013 7.16349 9.44123 7.23611C9.40233 7.30873 9.34609 7.37061 9.2775 7.41625Z" fill="#344054"/>
</svg>
