<svg width="88" height="88" viewBox="0 0 88 88" fill="none" xmlns="http://www.w3.org/2000/svg">
<g filter="url(#filter0_d_4043_12426)">
<rect x="4" y="3" width="80" height="80" rx="40" fill="#D0D5DD" shape-rendering="crispEdges"/>
<rect x="3" y="2" width="82" height="82" rx="41" stroke="white" stroke-width="2" shape-rendering="crispEdges"/>
<path d="M37.125 31.125V37.375H28.375C28.2092 37.375 28.0503 37.3092 27.9331 37.1919C27.8158 37.0747 27.75 36.9158 27.75 36.75V33C27.75 32.337 28.0134 31.7011 28.4822 31.2322C28.9511 30.7634 29.587 30.5 30.25 30.5H36.5C36.6658 30.5 36.8247 30.5658 36.9419 30.6831C37.0592 30.8003 37.125 30.9592 37.125 31.125ZM39.625 54.875C39.625 55.0408 39.6908 55.1997 39.8081 55.3169C39.9253 55.4342 40.0842 55.5 40.25 55.5H47.75C47.9158 55.5 48.0747 55.4342 48.1919 55.3169C48.3092 55.1997 48.375 55.0408 48.375 54.875V48.625H39.625V54.875ZM27.75 49.25V53C27.75 53.663 28.0134 54.2989 28.4822 54.7678C28.9511 55.2366 29.587 55.5 30.25 55.5H36.5C36.6658 55.5 36.8247 55.4342 36.9419 55.3169C37.0592 55.1997 37.125 55.0408 37.125 54.875V48.625H28.375C28.2092 48.625 28.0503 48.6908 27.9331 48.8081C27.8158 48.9253 27.75 49.0842 27.75 49.25ZM27.75 40.5V45.5C27.75 45.6658 27.8158 45.8247 27.9331 45.9419C28.0503 46.0592 28.2092 46.125 28.375 46.125H37.125V39.875H28.375C28.2092 39.875 28.0503 39.9408 27.9331 40.0581C27.8158 40.1753 27.75 40.3342 27.75 40.5ZM47.75 30.5H40.25C40.0842 30.5 39.9253 30.5658 39.8081 30.6831C39.6908 30.8003 39.625 30.9592 39.625 31.125V37.375H48.375V31.125C48.375 30.9592 48.3092 30.8003 48.1919 30.6831C48.0747 30.5658 47.9158 30.5 47.75 30.5ZM59.625 39.875H50.875V46.125H59.625C59.7908 46.125 59.9497 46.0592 60.0669 45.9419C60.1842 45.8247 60.25 45.6658 60.25 45.5V40.5C60.25 40.3342 60.1842 40.1753 60.0669 40.0581C59.9497 39.9408 59.7908 39.875 59.625 39.875ZM39.625 46.125H48.375V39.875H39.625V46.125ZM57.75 30.5H51.5C51.3342 30.5 51.1753 30.5658 51.0581 30.6831C50.9408 30.8003 50.875 30.9592 50.875 31.125V37.375H59.625C59.7908 37.375 59.9497 37.3092 60.0669 37.1919C60.1842 37.0747 60.25 36.9158 60.25 36.75V33C60.25 32.337 59.9866 31.7011 59.5178 31.2322C59.0489 30.7634 58.413 30.5 57.75 30.5ZM59.625 48.625H50.875V54.875C50.875 55.0408 50.9408 55.1997 51.0581 55.3169C51.1753 55.4342 51.3342 55.5 51.5 55.5H57.75C58.413 55.5 59.0489 55.2366 59.5178 54.7678C59.9866 54.2989 60.25 53.663 60.25 53V49.25C60.25 49.0842 60.1842 48.9253 60.0669 48.8081C59.9497 48.6908 59.7908 48.625 59.625 48.625Z" fill="white"/>
</g>
<defs>
<filter id="filter0_d_4043_12426" x="0" y="0" width="88" height="88" filterUnits="userSpaceOnUse" color-interpolation-filters="sRGB">
<feFlood flood-opacity="0" result="BackgroundImageFix"/>
<feColorMatrix in="SourceAlpha" type="matrix" values="0 0 0 0 0 0 0 0 0 0 0 0 0 0 0 0 0 0 127 0" result="hardAlpha"/>
<feOffset dy="1"/>
<feGaussianBlur stdDeviation="1"/>
<feComposite in2="hardAlpha" operator="out"/>
<feColorMatrix type="matrix" values="0 0 0 0 0.0431373 0 0 0 0 0.0117647 0 0 0 0 0.176471 0 0 0 0.08 0"/>
<feBlend mode="normal" in2="BackgroundImageFix" result="effect1_dropShadow_4043_12426"/>
<feBlend mode="normal" in="SourceGraphic" in2="effect1_dropShadow_4043_12426" result="shape"/>
</filter>
</defs>
</svg>
