<svg width="11" height="11" viewBox="0 0 11 11" fill="none" xmlns="http://www.w3.org/2000/svg">
<path d="M10.7676 9.65697C10.9152 9.80451 10.9981 10.0046 10.9981 10.2133C10.9981 10.4219 10.9152 10.622 10.7676 10.7696C10.6201 10.9171 10.42 11 10.2113 11C10.0027 11 9.80255 10.9171 9.655 10.7696L5.49968 6.61296L1.34305 10.7683C1.19551 10.9158 0.995401 10.9987 0.786743 10.9987C0.578086 10.9987 0.377975 10.9158 0.230432 10.7683C0.0828889 10.6207 3.10924e-09 10.4206 0 10.212C-3.10924e-09 10.0033 0.0828889 9.8032 0.230432 9.65566L4.38706 5.50034L0.231741 1.34371C0.0841976 1.19617 0.001309 0.996055 0.001309 0.787398C0.001309 0.578741 0.0841976 0.378629 0.231741 0.231086C0.379284 0.0835433 0.579395 0.000654377 0.788052 0.000654374C0.996709 0.000654372 1.19682 0.0835433 1.34436 0.231086L5.49968 4.38772L9.65631 0.230432C9.80385 0.0828887 10.004 -3.47623e-09 10.2126 0C10.4213 3.47623e-09 10.6214 0.0828886 10.7689 0.230432C10.9165 0.377975 10.9994 0.578086 10.9994 0.786743C10.9994 0.9954 10.9165 1.19551 10.7689 1.34305L6.61231 5.50034L10.7676 9.65697Z" fill="#667185"/>
</svg>
