<svg width="22" height="19" viewBox="0 0 22 19" fill="none" xmlns="http://www.w3.org/2000/svg">
<path d="M20.9768 15.5885L12.6691 1.16095C12.4615 0.807483 12.1652 0.514405 11.8094 0.310767C11.4536 0.107128 11.0508 0 10.6409 0C10.231 0 9.82818 0.107128 9.47242 0.310767C9.11666 0.514405 8.82028 0.807483 8.61268 1.16095L0.305016 15.5885C0.105267 15.9303 0 16.3192 0 16.7151C0 17.1111 0.105267 17.5 0.305016 17.8418C0.509958 18.1974 0.805823 18.4921 1.16225 18.6956C1.51868 18.8991 1.92283 19.0041 2.33325 18.9999H18.9486C19.3587 19.0038 19.7624 18.8986 20.1185 18.6951C20.4746 18.4917 20.7701 18.1972 20.9749 17.8418C21.175 17.5001 21.2805 17.1114 21.2809 16.7154C21.2812 16.3194 21.1763 15.9305 20.9768 15.5885ZM9.88092 7.59999C9.88092 7.39843 9.96099 7.20512 10.1035 7.06259C10.246 6.92007 10.4394 6.84 10.6409 6.84C10.8425 6.84 11.0358 6.92007 11.1783 7.06259C11.3208 7.20512 11.4009 7.39843 11.4009 7.59999V11.4C11.4009 11.6015 11.3208 11.7948 11.1783 11.9373C11.0358 12.0799 10.8425 12.1599 10.6409 12.1599C10.4394 12.1599 10.246 12.0799 10.1035 11.9373C9.96099 11.7948 9.88092 11.6015 9.88092 11.4V7.59999ZM10.6409 15.9599C10.4154 15.9599 10.195 15.893 10.0076 15.7678C9.8201 15.6425 9.67399 15.4645 9.5877 15.2562C9.50142 15.0479 9.47884 14.8187 9.52283 14.5975C9.56682 14.3764 9.67539 14.1733 9.83482 14.0138C9.99425 13.8544 10.1974 13.7458 10.4185 13.7018C10.6397 13.6578 10.8689 13.6804 11.0772 13.7667C11.2855 13.853 11.4635 13.9991 11.5888 14.1866C11.714 14.374 11.7809 14.5944 11.7809 14.8199C11.7809 15.1223 11.6608 15.4122 11.447 15.626C11.2332 15.8398 10.9433 15.9599 10.6409 15.9599Z" fill="#D42620"/>
</svg>
