<svg width="17" height="16" viewBox="0 0 17 16" fill="none" xmlns="http://www.w3.org/2000/svg">
<g clip-path="url(#clip0_2171_22315)">
<path d="M16.344 8.18429C16.344 7.64047 16.3 7.09371 16.2059 6.55872H8.66003V9.63937H12.9812C12.8019 10.6329 12.2257 11.5119 11.3821 12.0704V14.0693H13.9601C15.4739 12.6759 16.344 10.6182 16.344 8.18429Z" fill="#4285F4"/>
<path d="M8.65999 16.0005C10.8176 16.0005 12.6372 15.292 13.9629 14.0692L11.385 12.0703C10.6677 12.5582 9.74174 12.8346 8.66293 12.8346C6.57584 12.8346 4.80623 11.4265 4.17128 9.53345H1.51099V11.5941C2.86906 14.2955 5.63518 16.0005 8.65999 16.0005Z" fill="#34A853"/>
<path d="M4.16839 9.53356C3.83328 8.53999 3.83328 7.46411 4.16839 6.47054V4.40991H1.51104C0.376367 6.67043 0.376367 9.33367 1.51104 11.5942L4.16839 9.53356Z" fill="#FBBC04"/>
<path d="M8.65999 3.16644C9.80053 3.1488 10.9029 3.57798 11.7289 4.36578L14.0129 2.08174C12.5667 0.72367 10.6471 -0.0229773 8.65999 0.000539111C5.63518 0.000539111 2.86906 1.70548 1.51099 4.40987L4.16834 6.4705C4.80035 4.57449 6.5729 3.16644 8.65999 3.16644Z" fill="#EA4335"/>
</g>
<defs>
<clipPath id="clip0_2171_22315">
<rect width="16" height="16" fill="white" transform="translate(0.5)"/>
</clipPath>
</defs>
</svg>
