<svg width="20" height="20" viewBox="0 0 20 20" fill="none" xmlns="http://www.w3.org/2000/svg">
<path d="M18.75 16.25H17.5V7.50002C17.5 7.1685 17.3683 6.85056 17.1339 6.61614C16.8995 6.38172 16.5815 6.25002 16.25 6.25002H11.25V2.50002C11.2501 2.27366 11.1888 2.05151 11.0726 1.85728C10.9563 1.66306 10.7895 1.50404 10.59 1.3972C10.3904 1.29036 10.1656 1.23972 9.93951 1.25067C9.71342 1.26163 9.49454 1.33377 9.30625 1.45939L3.05625 5.62502C2.8848 5.73941 2.74429 5.89442 2.64724 6.07625C2.55019 6.25809 2.49961 6.4611 2.5 6.66721V16.25H1.25C1.08424 16.25 0.925268 16.3159 0.808058 16.4331C0.690848 16.5503 0.625 16.7093 0.625 16.875C0.625 17.0408 0.690848 17.1998 0.808058 17.317C0.925268 17.4342 1.08424 17.5 1.25 17.5H18.75C18.9158 17.5 19.0747 17.4342 19.1919 17.317C19.3092 17.1998 19.375 17.0408 19.375 16.875C19.375 16.7093 19.3092 16.5503 19.1919 16.4331C19.0747 16.3159 18.9158 16.25 18.75 16.25ZM16.25 7.50002V16.25H11.25V7.50002H16.25ZM3.75 6.66721L10 2.50002V16.25H3.75V6.66721ZM8.75 8.75002V10C8.75 10.1658 8.68415 10.3248 8.56694 10.442C8.44973 10.5592 8.29076 10.625 8.125 10.625C7.95924 10.625 7.80027 10.5592 7.68306 10.442C7.56585 10.3248 7.5 10.1658 7.5 10V8.75002C7.5 8.58426 7.56585 8.42529 7.68306 8.30808C7.80027 8.19087 7.95924 8.12502 8.125 8.12502C8.29076 8.12502 8.44973 8.19087 8.56694 8.30808C8.68415 8.42529 8.75 8.58426 8.75 8.75002ZM6.25 8.75002V10C6.25 10.1658 6.18415 10.3248 6.06694 10.442C5.94973 10.5592 5.79076 10.625 5.625 10.625C5.45924 10.625 5.30027 10.5592 5.18306 10.442C5.06585 10.3248 5 10.1658 5 10V8.75002C5 8.58426 5.06585 8.42529 5.18306 8.30808C5.30027 8.19087 5.45924 8.12502 5.625 8.12502C5.79076 8.12502 5.94973 8.19087 6.06694 8.30808C6.18415 8.42529 6.25 8.58426 6.25 8.75002ZM6.25 13.125V14.375C6.25 14.5408 6.18415 14.6998 6.06694 14.817C5.94973 14.9342 5.79076 15 5.625 15C5.45924 15 5.30027 14.9342 5.18306 14.817C5.06585 14.6998 5 14.5408 5 14.375V13.125C5 12.9593 5.06585 12.8003 5.18306 12.6831C5.30027 12.5659 5.45924 12.5 5.625 12.5C5.79076 12.5 5.94973 12.5659 6.06694 12.6831C6.18415 12.8003 6.25 12.9593 6.25 13.125ZM8.75 13.125V14.375C8.75 14.5408 8.68415 14.6998 8.56694 14.817C8.44973 14.9342 8.29076 15 8.125 15C7.95924 15 7.80027 14.9342 7.68306 14.817C7.56585 14.6998 7.5 14.5408 7.5 14.375V13.125C7.5 12.9593 7.56585 12.8003 7.68306 12.6831C7.80027 12.5659 7.95924 12.5 8.125 12.5C8.29076 12.5 8.44973 12.5659 8.56694 12.6831C8.68415 12.8003 8.75 12.9593 8.75 13.125Z" fill="#475367"/>
</svg>
